<?xml version="1.0" encoding="utf-8"?>
<svg version="1.1" id="Camada_1" xmlns="http://www.w3.org/2000/svg" xmlns:xlink="http://www.w3.org/1999/xlink" x="0px" y="0px"
	 viewBox="0 0 512 512" enable-background="new 0 0 512 512" xml:space="preserve">
<path display="none" fill="#006AB0" d="M26,455.33V56.67C26,39.73,37.35,26,51.35,26H460.6c14,0,25.35,13.73,25.35,30.66L486,455.33
	c0,16.94-11.35,30.67-25.35,30.67H51.35C37.35,486,26,472.27,26,455.33z"/>
<rect x="0" fill="#006AB0" width="512" height="512"/>
<path display="none" fill="#FFFFFF" d="M258.17,366.11h164.32c3.6,0,6.52,2.92,6.52,6.52v46.08c0,3.6-2.92,6.52-6.52,6.52H258.17
	c-3.6,0-6.52-2.92-6.52-6.52v-46.08C251.65,369.02,254.57,366.11,258.17,366.11z M78.91,252.48l58.56,58.56
	c2.54,2.54,2.54,6.67,0,9.22l-58.56,58.56c-2.54,2.54-2.54,6.67,0,9.22l32.58,32.58c2.54,2.54,6.67,2.54,9.22,0l100.36-100.36
	c2.54-2.54,2.54-6.67,0-9.22L120.7,210.69c-2.54-2.54-6.67-2.54-9.22,0l-32.58,32.58C76.36,245.81,76.36,249.94,78.91,252.48z"/>
<g>
	<path fill="#FFFFFF" stroke="#FFFFFF" stroke-width="40" stroke-miterlimit="10" d="M166.57,275.28v131.03h44.66
		c5.95,0,10.18,1.15,12.68,3.44c2.49,2.29,3.75,5.34,3.75,9.12c0,3.59-1.25,6.58-3.75,8.97c-2.5,2.39-6.73,3.59-12.68,3.59H109.81
		c-5.76,0-9.9-1.2-12.39-3.59c-2.5-2.39-3.75-5.38-3.75-8.97c0-3.79,1.25-6.83,3.75-9.12c2.49-2.29,6.63-3.44,12.39-3.44h32.56
		V106.56h-32.56c-5.76,0-9.9-1.15-12.39-3.44c-2.5-2.29-3.75-5.33-3.75-9.12c0-3.79,1.25-6.83,3.75-9.12
		c2.49-2.29,6.63-3.44,12.39-3.44h146.36c30.15,0,55.56,9.92,76.21,29.76c20.64,19.85,30.97,42.23,30.97,67.16
		c0,17.95-6.39,34.85-19.16,50.71c-12.78,15.85-34.14,29.07-64.11,39.64c17.29,12.37,32.08,26.32,44.37,41.88
		c12.29,15.56,31.98,47.46,59.06,95.73h18.44c5.76,0,9.89,1.15,12.39,3.44c2.49,2.29,3.75,5.34,3.75,9.12
		c0,3.59-1.25,6.58-3.75,8.97c-2.5,2.39-6.63,3.59-12.39,3.59h-32.27c-29.96-55.64-53.16-92.93-69.58-111.88
		c-16.42-18.95-35.29-33.7-56.62-44.27H166.57z M166.57,250.15h65.98c21.13,0,40.29-3.99,57.48-11.97
		c17.19-7.97,29.68-17.35,37.46-28.12s11.67-21.73,11.67-32.91c0-16.75-8.12-32.71-24.35-47.86
		c-16.23-15.15-35.97-22.74-59.21-22.74h-89.03V250.15z"/>
</g>
</svg>
